<?xml version="1.0" standalone="no"?>
<!DOCTYPE svg PUBLIC "-//W3C//DTD SVG 20010904//EN"
 "http://www.w3.org/TR/2001/REC-SVG-20010904/DTD/svg10.dtd">
<svg version="1.0" xmlns="http://www.w3.org/2000/svg"
 width="300.000000pt" height="294.000000pt" viewBox="0 0 300.000000 294.000000"
 preserveAspectRatio="xMidYMid meet">
<metadata>
Created by potrace 1.10, written by Peter Selinger 2001-2011
</metadata>
<g transform="translate(0.000000,294.000000) scale(0.100000,-0.100000)"
fill="#000000" stroke="none">
<path d="M1495 2718 c-222 -147 -404 -453 -416 -701 -3 -45 -6 -51 -46 -79
-80 -54 -143 -77 -233 -84 l-85 -6 -40 41 c-43 45 -72 51 -98 23 -26 -28 -21
-47 27 -101 36 -40 45 -58 50 -102 13 -105 -23 -216 -95 -294 -53 -58 -86 -75
-142 -75 -48 0 -77 -21 -77 -58 0 -30 37 -52 91 -52 42 0 50 -4 90 -48 90 -96
129 -194 129 -324 0 -107 -12 -148 -60 -204 -45 -51 -45 -52 -24 -82 21 -30
53 -28 94 8 95 80 280 -19 280 -150 0 -22 -11 -40 -40 -69 -45 -43 -49 -62
-20 -91 30 -30 55 -25 104 20 54 50 100 69 181 77 132 12 335 -60 335 -120 0
-32 20 -57 45 -57 32 0 55 25 55 59 0 25 9 33 68 64 88 46 158 61 247 54 87
-6 126 -22 187 -76 50 -45 76 -51 101 -23 26 28 21 48 -24 97 -40 43 -41 47
-34 92 18 120 187 197 272 123 40 -36 76 -39 97 -8 22 31 21 33 -22 81 -51 55
-62 91 -62 199 0 137 39 237 129 331 38 40 51 47 83 47 42 0 78 27 78 58 0 28
-33 52 -71 52 -43 0 -116 44 -153 93 -54 71 -83 181 -71 274 6 47 13 63 51
103 49 52 58 92 25 110 -33 17 -50 12 -96 -31 l-45 -41 -77 7 c-82 8 -139 25
-185 57 -25 17 -28 26 -28 74 0 223 -148 515 -337 665 -81 64 -141 99 -171 99
-10 0 -40 -14 -67 -32z m136 -42 c23 -14 68 -47 100 -75 58 -52 149 -161 149
-180 0 -5 6 -16 13 -23 22 -23 89 -162 104 -213 7 -27 20 -96 27 -153 16 -115
30 -143 84 -171 118 -60 280 -58 331 3 8 9 17 16 22 16 17 0 9 -27 -15 -49
-73 -68 -83 -222 -24 -349 42 -89 153 -182 218 -182 11 0 20 -5 20 -10 0 -11
-7 -14 -52 -24 -32 -7 -103 -74 -139 -131 -45 -70 -70 -154 -76 -252 -7 -109
6 -168 48 -230 17 -24 29 -47 26 -49 -3 -3 -24 7 -46 22 -36 23 -48 26 -95 21
-124 -13 -213 -98 -218 -207 -1 -31 6 -51 30 -86 18 -24 32 -47 32 -49 0 -15
-35 -1 -51 19 -11 14 -45 37 -77 53 -51 25 -68 28 -157 28 -94 0 -123 -6 -195
-38 -60 -27 -98 -58 -114 -91 -9 -20 -21 -36 -25 -36 -5 0 -20 17 -34 39 -51
77 -191 132 -327 127 -98 -3 -165 -27 -219 -77 -54 -50 -72 -35 -30 25 53 76
40 154 -37 228 -72 67 -188 85 -254 38 -34 -24 -52 -19 -32 8 59 82 73 122 73
215 1 89 -16 162 -57 246 -45 91 -119 168 -172 176 -20 4 -43 8 -50 11 -24 7
-2 24 32 24 46 0 133 63 178 130 56 83 72 142 66 254 -5 91 -6 96 -43 140 -21
26 -35 49 -32 52 3 4 26 -8 50 -26 44 -32 46 -32 144 -28 89 3 106 6 165 37
107 54 146 101 153 186 5 48 32 170 44 193 5 9 24 48 42 85 18 37 37 71 42 74
6 3 8 2 5 -3 -57 -106 -99 -224 -113 -322 -12 -86 -7 -267 10 -355 9 -49 14
-91 12 -94 -3 -2 -8 4 -11 15 -4 10 -18 25 -32 33 -25 13 -28 12 -55 -19 -16
-18 -29 -30 -29 -28 0 2 18 34 40 70 45 75 49 102 19 141 -25 31 -33 30 -126
-9 -37 -16 -91 -29 -137 -32 -106 -9 -116 -22 -121 -145 -5 -134 -41 -223
-124 -304 -48 -46 -53 -79 -16 -119 29 -32 74 -99 97 -146 31 -64 42 -124 43
-249 1 -140 7 -152 85 -165 95 -15 168 -79 195 -171 17 -60 42 -79 94 -71 103
16 129 16 194 6 38 -7 101 -25 140 -41 l70 -29 24 22 c20 18 27 20 41 10 35
-25 47 -25 106 -3 115 44 216 55 327 36 32 -6 42 -3 63 18 14 14 28 38 32 54
20 78 103 150 202 173 75 17 82 32 76 149 -5 84 -3 107 21 186 28 94 44 127
107 211 21 28 38 58 38 67 0 10 -24 44 -54 76 -89 96 -116 167 -116 302 0 108
-13 124 -111 133 -36 3 -85 13 -109 21 -56 20 -69 19 -97 -7 -29 -27 -28 -59
2 -123 26 -55 25 -67 -3 -42 -10 10 -29 17 -41 17 -17 0 -21 5 -17 18 35 119
33 355 -3 487 -40 143 -123 295 -171 310 -11 4 -23 17 -26 30 -3 13 -37 53
-75 89 -72 68 -94 83 -138 97 -23 6 -24 7 -5 8 12 1 41 -10 65 -23z m13 -70
c83 -64 142 -123 111 -112 -11 5 -55 15 -99 24 -78 15 -125 13 -251 -14 l-30
-6 35 33 c58 57 144 129 154 129 5 0 41 -24 80 -54z m-253 -43 c-16 -20 -28
-40 -25 -45 5 -7 -87 -100 -94 -94 -9 10 127 176 143 176 4 0 -7 -17 -24 -37z
m329 -94 c92 -30 102 -40 153 -139 132 -261 131 -582 -4 -852 l-29 -58 -38 20
c-51 27 -162 50 -240 50 -72 0 -203 -25 -244 -46 l-29 -15 -34 73 c-60 127
-77 211 -79 393 -1 138 2 171 22 245 37 138 114 284 163 311 69 37 272 47 359
18z m-640 -674 c0 -23 -10 -49 -30 -77 -16 -22 -30 -47 -30 -54 0 -10 -6 -11
-22 -4 -13 5 -47 14 -77 20 -63 12 -84 2 -63 -30 17 -28 15 -108 -5 -165 -16
-48 -89 -133 -142 -166 -29 -18 -23 -49 8 -49 44 0 113 -168 132 -323 9 -67 9
-94 0 -114 -14 -31 2 -57 30 -48 47 15 249 -142 249 -193 0 -14 11 -17 63 -18
68 -1 185 -33 258 -70 43 -21 47 -27 51 -66 3 -24 4 -45 2 -46 -1 -2 -22 8
-47 22 -24 14 -79 35 -122 46 -105 27 -179 26 -271 -4 -19 -6 -22 -2 -28 35
-9 55 -28 89 -76 137 -45 44 -132 82 -187 82 -30 0 -34 3 -28 18 4 9 10 56 13
103 3 67 0 102 -17 164 -28 100 -80 201 -131 250 l-39 38 55 49 c89 82 141
218 132 352 l-4 66 56 0 c68 0 139 19 205 53 28 14 53 26 58 27 4 0 7 -16 7
-35z m1168 -42 l77 -5 -3 -82 c-5 -102 17 -186 69 -266 21 -32 56 -72 78 -88
l40 -29 -40 -39 c-52 -50 -113 -173 -134 -270 -17 -75 -17 -206 0 -246 6 -15
2 -18 -27 -18 -117 0 -268 -131 -268 -232 l0 -25 -57 13 c-32 8 -76 14 -98 14
-64 0 -175 -27 -237 -58 l-58 -29 0 44 c0 38 4 46 33 63 65 40 290 99 302 79
9 -14 35 2 35 22 0 28 75 106 144 151 49 31 65 37 92 32 l33 -6 -6 83 c-4 66
-1 103 16 174 27 111 84 235 109 235 10 0 23 5 29 11 14 14 6 39 -13 39 -24 0
-104 81 -130 131 -33 66 -42 150 -20 184 24 37 6 58 -43 49 -70 -11 -71 -12
-59 -44 5 -17 13 -30 16 -30 4 0 7 -26 8 -58 1 -73 41 -165 93 -216 l38 -37
-28 -52 c-35 -65 -76 -207 -85 -292 -4 -36 -8 -65 -10 -65 -1 0 -17 13 -35 29
-31 29 -32 31 -25 94 12 116 64 262 97 270 26 7 24 19 -12 56 -33 35 -68 103
-69 136 -1 11 -11 -7 -24 -40 l-23 -60 25 -33 c23 -32 23 -34 7 -68 -33 -71
-56 -151 -62 -217 -4 -48 -9 -65 -16 -58 -15 15 -47 14 -48 -1 -1 -7 -2 -19
-3 -26 0 -8 -30 -24 -66 -36 -91 -33 -241 -95 -267 -112 -12 -8 -25 -14 -28
-14 -3 0 -5 42 -5 93 l0 94 53 26 c28 15 71 33 93 41 l41 14 35 -39 c22 -24
44 -39 58 -39 25 0 60 26 60 44 0 23 100 318 146 429 28 71 31 152 7 212 -8
22 -18 59 -20 82 l-5 43 57 -26 c38 -18 80 -28 133 -31z m-1123 -135 c9 -55
59 -154 146 -291 38 -60 69 -111 69 -113 0 -7 -95 -129 -103 -132 -4 -2 -2
-11 5 -20 11 -13 11 -14 -2 -10 -10 3 -14 15 -12 36 4 37 -17 106 -92 308 -60
162 -61 169 -45 227 13 49 26 47 34 -5z m-111 -20 c-5 -35 3 -69 41 -178 26
-74 66 -195 89 -268 23 -73 48 -137 56 -142 28 -18 56 -10 90 25 38 40 39 40
143 -7 l67 -31 0 -83 c0 -45 3 -90 7 -100 5 -13 3 -16 -8 -11 -204 89 -264
114 -319 133 -59 20 -65 25 -62 48 3 20 -1 26 -15 26 -11 0 -24 -5 -31 -12 -9
-9 -12 -3 -12 28 0 52 -32 173 -62 232 l-23 47 29 56 30 56 -20 83 -21 83 -6
-54 c-8 -64 -58 -170 -94 -198 -26 -22 -26 -51 1 -51 31 0 82 -131 96 -249
l10 -75 -32 -33 c-18 -18 -36 -33 -40 -33 -4 0 -8 23 -8 51 0 92 -73 321 -109
344 -8 4 3 23 34 56 56 60 86 125 92 205 l6 62 28 -8 c26 -8 29 -6 29 16 0 13
4 24 10 24 6 0 7 -18 4 -42z m1016 -24 c0 -34 -64 -220 -110 -319 -5 -11 -16
-47 -26 -80 -29 -104 -24 -102 -76 -30 l-48 65 34 44 c18 24 50 72 71 106 43
71 61 74 19 3 -17 -30 -21 -43 -10 -34 15 13 16 12 8 -10 -5 -13 -12 -44 -15
-69 -5 -39 -5 -41 5 -20 6 14 10 30 9 37 -1 7 20 72 48 145 27 73 52 151 56
173 4 22 9 44 12 48 10 16 23 -17 23 -59z m-730 -191 c0 -29 34 -63 63 -63 19
0 22 -6 23 -37 1 -21 4 -47 8 -58 4 -15 -1 -25 -20 -38 -28 -21 -44 -16 -25 7
10 12 6 26 -18 73 -17 32 -31 63 -31 69 0 6 -9 19 -19 28 -11 10 -24 31 -30
46 l-9 28 29 -16 c18 -11 29 -25 29 -39z m443 27 c69 -24 75 -30 54 -67 -9
-16 -16 -20 -27 -13 -12 7 -12 12 -2 22 17 17 15 39 -3 32 -8 -4 -15 -12 -15
-20 0 -17 0 -17 -75 1 -72 17 -141 19 -219 4 -43 -8 -61 -7 -72 2 -30 24 -10
45 61 63 51 13 232 -2 298 -24z m-383 -25 c0 -8 5 -15 10 -15 17 0 11 -19 -10
-30 -16 -9 -22 -6 -35 19 -11 23 -12 31 -2 34 23 10 37 7 37 -8z m314 -76 c46
-10 56 -15 50 -28 -3 -9 -9 -24 -11 -34 -4 -11 -11 -16 -21 -12 -8 3 -19 0
-23 -7 -11 -17 -141 -23 -204 -9 -47 11 -53 15 -59 43 -3 17 -4 34 0 37 18 18
193 25 268 10z m101 -62 c-20 -31 -14 -74 16 -108 22 -25 24 -39 7 -39 -21 0
-33 14 -36 40 -2 14 -15 35 -29 47 -25 21 -26 22 -10 47 9 14 17 34 17 44 0
29 12 34 33 13 18 -18 18 -20 2 -44z m-205 -76 c-16 -30 -28 -34 -39 -12 -16
29 -14 31 19 31 27 0 30 -2 20 -19z m-138 0 c13 -5 34 -12 48 -15 22 -4 25
-11 25 -46 1 -22 1 -40 0 -40 0 0 -22 11 -49 25 -27 14 -58 25 -68 25 -22 0
-23 5 0 35 20 29 16 27 44 16z m292 -20 c17 -19 17 -20 -26 -31 -23 -6 -58
-20 -75 -30 l-33 -19 0 38 c0 37 2 39 43 48 63 16 72 15 91 -6z m-381 -20 c3
-13 -4 -22 -28 -33 l-33 -15 16 34 c17 36 37 43 45 14z m227 -116 l-24 -25
-22 21 -23 22 21 29 21 30 25 -26 26 -25 -24 -26z m-498 -54 l21 -20 -27 -7
c-33 -8 -40 -2 -31 25 8 26 11 26 37 2z m978 -23 c0 -4 -13 -8 -30 -8 -34 0
-37 6 -13 32 16 18 18 18 30 2 7 -10 13 -21 13 -26z m-918 -61 c40 -13 139
-52 220 -86 l147 -63 3 -84 c3 -72 1 -83 -12 -78 -86 35 -151 56 -221 69 -60
12 -89 23 -102 38 -47 57 -106 111 -145 134 l-43 26 32 33 c18 19 36 34 41 34
4 0 40 -11 80 -23z m929 -11 l38 -35 -43 -25 c-41 -24 -146 -129 -146 -146 0
-4 -24 -10 -52 -14 -66 -9 -181 -42 -230 -67 l-38 -19 0 85 0 85 58 29 c114
57 324 139 361 140 7 1 31 -14 52 -33z m-1111 -28 c0 -11 -7 -18 -20 -18 -21
0 -40 27 -33 47 7 19 53 -6 53 -29z m1219 -4 c-15 -18 -44 -14 -44 6 0 22 38
40 48 23 5 -8 4 -20 -4 -29z m-596 -37 c13 -21 13 -25 -5 -50 -19 -27 -21 -27
-39 -11 -23 21 -24 42 -2 66 21 23 28 23 46 -5z m1 -246 c17 -18 17 -21 1 -45
-21 -32 -32 -32 -55 -3 -18 21 -18 23 2 45 26 27 30 27 52 3z"/>
<path d="M1495 2426 c-64 -20 -99 -42 -139 -87 -59 -64 -81 -121 -81 -209 0
-123 54 -208 168 -267 107 -56 268 -23 356 72 69 75 99 206 68 292 -35 93
-124 172 -223 198 -69 18 -95 18 -149 1z m200 -91 c113 -66 150 -196 87 -308
-34 -61 -107 -111 -174 -120 -125 -17 -242 63 -269 183 -11 48 13 150 44 192
64 86 213 111 312 53z"/>
<path d="M1510 2267 c-70 -37 -115 -144 -75 -177 19 -16 45 3 45 34 0 32 37
85 66 96 14 6 41 10 60 10 38 0 54 21 34 45 -18 22 -81 18 -130 -8z"/>
<path d="M1744 2242 c8 -15 17 -50 20 -77 12 -108 -68 -204 -177 -213 -104 -8
-206 76 -207 169 0 25 -5 39 -16 43 -11 4 -15 2 -11 -6 2 -7 12 -38 20 -68 28
-95 103 -151 206 -153 111 -3 203 85 203 193 -1 45 -32 140 -47 140 -3 0 1
-12 9 -28z"/>
<path d="M1574 2161 c-12 -14 -31 -25 -43 -24 -12 1 -19 -2 -16 -8 16 -26 91
12 84 42 -3 12 -9 10 -25 -10z"/>
<path d="M1715 2138 c-9 -13 -26 -38 -38 -57 -12 -19 -37 -42 -54 -51 -43 -23
-63 -40 -63 -54 0 -8 2 -8 8 0 4 6 23 16 43 23 46 15 94 65 112 119 17 48 15
52 -8 20z"/>
<path d="M1740 2420 c6 -11 16 -20 23 -20 7 0 22 -15 35 -33 12 -17 22 -27 22
-21 0 21 -45 77 -68 85 -20 8 -21 6 -12 -11z"/>
<path d="M1898 2087 c3 -46 1 -87 -6 -100 -6 -12 -13 -67 -15 -122 -5 -100
-30 -219 -68 -319 -14 -39 -17 -60 -10 -77 8 -22 12 -18 44 51 60 130 81 233
80 400 0 97 -6 161 -16 195 l-15 50 6 -78z"/>
<path d="M1761 1776 c-6 -48 -23 -129 -36 -179 -25 -96 -25 -124 -1 -66 22 52
44 147 54 225 12 106 -2 123 -17 20z"/>
<path d="M1210 1761 c10 -14 28 -60 39 -101 25 -95 53 -161 77 -180 16 -14 17
-13 9 5 -26 64 -64 178 -75 226 -10 47 -17 57 -41 66 l-28 11 19 -27z"/>
<path d="M1655 954 c-8 -9 -15 -17 -15 -19 0 -2 7 -10 15 -19 20 -20 45 -10
45 19 0 29 -25 39 -45 19z"/>
<path d="M1131 1544 c-1 -6 21 -73 48 -150 28 -76 50 -128 50 -116 1 13 -19
74 -43 135 -24 62 -46 119 -49 127 -3 8 -6 10 -6 4z"/>
<path d="M1241 1329 c-1 -4 6 -26 14 -49 8 -24 13 -60 10 -84 -4 -32 -3 -36 4
-16 14 40 12 72 -8 115 -11 22 -20 37 -20 34z"/>
<path d="M1296 974 c-9 -22 17 -49 39 -40 10 3 15 15 13 28 -4 29 -42 37 -52
12z"/>
<path d="M1390 945 c-17 -20 -5 -45 20 -45 11 0 23 7 26 15 6 15 -11 45 -26
45 -4 0 -13 -7 -20 -15z"/>
<path d="M1836 1237 c-3 -13 -1 -36 3 -52 8 -27 9 -24 10 23 1 56 -3 66 -13
29z"/>
<path d="M1470 1250 c-16 -10 -8 -12 60 -12 94 0 125 4 105 12 -28 12 -147 12
-165 0z"/>
<path d="M1214 775 c-9 -23 3 -45 26 -45 25 0 37 25 20 45 -16 19 -39 19 -46
0z"/>
<path d="M1807 774 c-12 -12 -8 -52 6 -57 22 -8 39 8 35 34 -3 23 -27 37 -41
23z"/>
<path d="M1725 714 c-8 -9 -15 -17 -15 -19 0 -2 7 -10 15 -19 20 -20 45 -10
45 19 0 29 -25 39 -45 19z"/>
<path d="M681 287 c-104 -23 -70 -46 104 -71 207 -31 751 -61 732 -41 -7 8
-82 13 -457 30 -80 4 -167 13 -195 20 -27 7 -74 16 -103 20 -62 8 -60 21 6 30
26 3 54 10 62 16 21 13 -82 10 -149 -4z"/>
<path d="M1090 291 c-42 -4 -70 -9 -63 -14 14 -9 316 -8 360 1 l28 6 -25 7
c-29 8 -190 8 -300 0z"/>
<path d="M1705 292 l-30 -8 34 -7 c52 -11 339 -8 346 3 4 6 -14 10 -47 10 -29
0 -102 2 -163 5 -60 2 -123 1 -140 -3z"/>
<path d="M2250 290 c8 -5 27 -10 42 -10 66 0 77 -25 16 -35 -24 -4 -65 -13
-93 -20 -27 -7 -88 -14 -135 -15 -47 0 -98 -3 -115 -5 -16 -2 -95 -7 -175 -10
-231 -11 -242 -25 -15 -20 282 7 652 48 680 76 16 16 -8 29 -71 39 -79 13
-154 13 -134 0z"/>
</g>
</svg>
